<?xml version="1.0" standalone="no"?>
<!DOCTYPE svg PUBLIC "-//W3C//DTD SVG 20010904//EN"
 "http://www.w3.org/TR/2001/REC-SVG-20010904/DTD/svg10.dtd">
<svg version="1.0" xmlns="http://www.w3.org/2000/svg"
 width="256.000000pt" height="256.000000pt" viewBox="0 0 256.000000 256.000000"
 preserveAspectRatio="xMidYMid meet">
<metadata>
Created by potrace 1.11, written by Peter Selinger 2001-2013
</metadata>
<g transform="translate(0.000000,256.000000) scale(0.100000,-0.100000)"
fill="#000000" stroke="none">
<path d="M252 2308 c-9 -9 -12 -112 -12 -401 0 -360 1 -391 18 -403 22 -17
762 -20 793 -4 18 10 19 25 19 400 0 213 -3 395 -6 404 -5 14 -50 16 -403 16
-295 0 -400 -3 -409 -12z m448 -398 c0 -273 0 -280 -20 -280 -19 0 -20 7 -20
247 0 234 -1 245 -17 231 -29 -25 -80 -48 -108 -48 -42 0 -28 24 25 43 31 11
60 30 77 52 16 19 36 35 46 35 16 0 17 -20 17 -280z"/>
<path d="M1505 2311 c-3 -6 -8 -183 -12 -396 -7 -463 -19 -424 131 -426 l101
-1 -55 -14 c-30 -8 -84 -21 -120 -29 -303 -68 -523 -125 -540 -140 -24 -21
-25 -51 -5 -125 8 -30 15 -61 15 -67 0 -10 -81 -13 -374 -13 l-375 0 -15 -22
c-14 -19 -16 -75 -16 -403 0 -283 3 -384 12 -393 14 -14 784 -17 805 -4 10 6
13 82 15 302 l3 295 33 -135 c18 -74 55 -232 83 -350 28 -118 54 -225 59 -237
19 -47 17 -47 475 63 245 58 599 142 639 151 24 5 47 19 59 35 l20 27 -52 223
c-29 123 -69 288 -88 368 -19 80 -51 217 -72 305 l-37 160 58 5 c36 3 63 11
69 20 11 16 5 783 -7 801 -7 12 -801 12 -809 0z m498 -125 c100 -42 120 -172
42 -263 -19 -22 -75 -68 -124 -102 -87 -59 -151 -122 -151 -148 0 -10 38 -13
165 -13 138 0 165 -2 165 -15 0 -12 -31 -15 -186 -17 l-186 -3 6 35 c9 55 55
109 145 171 47 32 100 72 118 90 79 74 82 174 6 225 -37 24 -128 25 -165 1
-32 -22 -58 -74 -58 -116 0 -24 -4 -31 -20 -31 -16 0 -20 7 -20 35 0 62 46
132 100 154 37 14 126 13 163 -3z m-207 -841 c94 -28 159 -106 171 -203 10
-88 -22 -156 -98 -212 l-38 -27 53 -6 c108 -11 176 -67 208 -170 57 -190 -58
-354 -280 -397 -168 -33 -308 30 -368 167 -31 70 -32 103 -1 103 18 0 26 -10
40 -51 22 -60 75 -122 131 -152 62 -33 191 -31 266 4 118 55 177 143 167 249
-15 166 -137 240 -328 199 -42 -9 -53 -9 -60 2 -14 23 -6 31 58 50 77 24 151
74 175 119 28 52 21 144 -15 199 -39 58 -95 85 -182 85 -185 1 -301 -108 -293
-275 3 -60 1 -70 -16 -75 -10 -3 -22 -2 -28 4 -16 16 -13 143 5 198 50 147
262 240 433 189z m-1026 -570 l0 -195 45 0 c33 0 45 -4 45 -15 0 -11 -12 -15
-45 -15 l-45 0 0 -75 c0 -59 -3 -75 -15 -75 -11 0 -15 17 -17 73 l-3 72 -136
5 c-116 4 -136 7 -134 21 2 13 44 76 228 342 24 35 47 57 58 57 18 0 19 -12
19 -195z"/>
<path d="M624 758 c-61 -84 -114 -159 -118 -165 -6 -10 20 -13 114 -13 l122 0
-4 165 c-1 91 -3 165 -4 165 0 0 -50 -69 -110 -152z"/>
<path d="M1267 2052 c-64 -66 -117 -127 -117 -136 0 -15 220 -254 242 -264 23
-10 -4 22 -112 136 l-121 126 121 121 c66 66 120 124 120 128 0 19 -25 -2
-133 -111z"/>
<path d="M532 1308 c-70 -68 -129 -127 -131 -132 -8 -19 33 15 145 122 l118
113 123 -123 c67 -67 126 -119 130 -115 7 8 -208 231 -240 248 -15 9 -38 -9
-145 -113z"/>
</g>
</svg>
